# xmcd CD database file
#
# Track frame offsets:
#	155
#	32398
#	42783
#	68023
#	98358
#	115983
#	126708
#	166045
#	183858
#
# Disc length: 2576 seconds
#
# Revision: 0
# Processed by: cddbd v1.4PL0 Copyright (c) Steve Scherf et al.
# Submitted via: CDex 1.50beta8
#
DISCID=670a0e09
DTITLE=Sweetwater Jazz Band - I Fantastici Anni '20
DYEAR=1900
DGENRE=Jazz
TTITLE0=Careless Love
TTITLE1=John Henry
TTITLE2=When The Saints Go Marchin' In
TTITLE3=Nineteen Nineteen Rag
TTITLE4=Down By The Riverside
TTITLE5=Maryland My Maryland
TTITLE6=The Blues
TTITLE7=Joshua Fit The Battle Of Jerico
TTITLE8=The Girls Go Crazy About The Way They Walk
EXTD=
EXTT0=
EXTT1=
EXTT2=
EXTT3=
EXTT4=
EXTT5=
EXTT6=
EXTT7=
EXTT8=
PLAYORDER=
